# Blender v2.79 (sub 0) OBJ File: ''
# www.blender.org
mtllib eve_paper_plane.mtl
o group1.001
v 1.735527 0.233788 -13.452559
v 0.912847 0.945344 -13.985284
v 6.786020 0.233781 -0.788446
v 0.982376 4.333985 -2.122030
v 10.243037 0.233778 5.432959
v 1.562771 5.412885 4.672935
v 3.216739 6.455350 9.359814
v 9.128540 0.233775 11.256577
v -0.913953 0.944503 -13.984654
v -1.260685 4.327537 -2.119932
v -0.412475 0.893845 -13.894016
v -0.787087 4.219619 -2.084909
v -0.232660 0.606051 -13.630308
v -0.150349 0.654905 -0.926165
v 0.232524 0.606051 -13.630308
v 0.150348 0.654905 -0.926165
v 0.527604 4.217503 -2.084221
v 0.411671 0.892774 -13.893034
v 1.104255 5.248697 4.637501
v 2.833798 6.401906 9.403070
v -3.216424 6.455682 9.359713
v -2.820729 6.402823 9.402730
v -1.177803 5.251488 4.560597
v -2.516182 4.587539 10.078589
v -1.105911 2.936665 4.659806
v -0.131777 0.658221 4.683144
v 0.131776 0.658221 4.683144
v 1.071954 2.878052 4.660407
v 2.614806 4.776018 10.008414
v -0.473343 0.648116 11.749112
v 0.473342 0.648116 11.749112
v -1.641613 5.411785 4.586435
v -10.243037 0.233778 5.432959
v -9.128541 0.233775 11.256577
v -7.259149 0.233780 0.063016
v -5.497173 1.307934 -0.848189
v -4.092794 2.382293 -1.115409
v -2.166637 3.656311 -1.901617
v -4.371129 2.022990 -1.370383
v -1.735662 0.233788 -13.452559
vt 0.595119 0.998945
vt 0.535384 0.963562
vt 0.859229 0.621023
vt 0.588762 0.525821
vt 0.963423 0.406287
vt 0.611199 0.274449
vt 0.630252 0.093537
vt 0.994463 0.196239
vt 0.469238 0.958259
vt 0.413643 0.521580
vt 0.480742 0.948681
vt 0.425656 0.513250
vt 0.495473 0.945034
vt 0.495728 0.479347
vt 0.509500 0.945973
vt 0.507621 0.479835
vt 0.577027 0.516797
vt 0.524039 0.952503
vt 0.600286 0.267642
vt 0.622895 0.084438
vt 0.371874 0.089942
vt 0.379675 0.081124
vt 0.402587 0.266463
vt 0.412712 0.041169
vt 0.447195 0.240996
vt 0.495212 0.266501
vt 0.507720 0.266792
vt 0.554759 0.242929
vt 0.593646 0.046031
vt 0.493120 0.007362
vt 0.510088 0.007649
vt 0.391549 0.273206
vt 0.037438 0.399154
vt 0.004721 0.188884
vt 0.130794 0.583074
vt 0.189175 0.578530
vt 0.236369 0.551922
vt 0.300492 0.536444
vt 0.226572 0.572615
vt 0.409003 0.991449
vn 0.7265 0.6231 -0.2897
vn 0.5962 0.7711 -0.2237
vn 0.5941 0.7335 -0.3301
vn 0.5157 0.8383 -0.1771
vn 0.5020 0.7896 -0.3528
vn 0.6978 0.7038 0.1335
vn 0.1446 0.9527 -0.2674
vn 0.2327 0.9380 -0.2568
vn 0.8828 0.4588 -0.1012
vn 0.9848 0.1736 -0.0070
vn 0.0000 1.0000 -0.0038
vn -0.9946 0.1031 -0.0068
vn -0.8869 0.4468 -0.1171
vn -0.1490 0.9522 -0.2666
vn -0.2599 0.9289 -0.2638
vn -0.2559 0.9586 -0.1251
vn -0.3263 0.9375 -0.1210
vn -0.3277 0.9386 -0.1082
vn -0.1543 0.9746 -0.1623
vn 0.1495 0.9722 -0.1804
vn 0.9331 0.2521 0.2566
vn 0.9699 0.0404 0.2401
vn 0.9980 0.0333 0.0535
vn 0.9127 0.3914 0.1176
vn 0.9846 0.1748 -0.0034
vn 0.0000 1.0000 -0.0006
vn -0.9945 0.1042 -0.0034
vn -0.9098 0.3869 0.1503
vn -0.9964 0.0144 0.0833
vn -0.9622 0.0157 0.2720
vn -0.9313 0.2305 0.2822
vn 0.9126 0.3914 0.1183
vn 0.8793 0.4743 0.0432
vn 0.0000 1.0000 0.0014
vn -0.8793 0.4744 0.0432
vn -0.9130 0.3880 0.1257
vn 0.2299 0.9627 -0.1426
vn 0.3177 0.9396 -0.1272
vn 0.3200 0.9421 -0.1005
vn -0.5093 0.7902 -0.3408
vn -0.6978 0.7038 0.1335
vn -0.6114 0.7147 -0.3397
vn -0.5191 0.8269 -0.2162
vn -0.5903 0.7900 -0.1660
vn -0.6122 0.7743 -0.1600
vn -0.6146 0.7537 -0.2329
vn -0.7214 0.6447 -0.2528
vn -0.5979 0.7637 -0.2435
vn -0.5933 0.7676 -0.2425
usemtl mat1.001
s off
f 1/1/1 2/2/1 3/3/1
f 2/2/2 4/4/2 3/3/2
f 3/3/3 4/4/3 5/5/3
f 4/4/4 6/6/4 5/5/4
f 6/6/5 7/7/5 5/5/5
f 5/5/6 7/7/6 8/8/6
f 9/9/7 10/10/7 11/11/7
f 10/10/8 12/12/8 11/11/8
f 11/11/9 12/12/9 13/13/9
f 12/12/10 14/14/10 13/13/10
f 13/13/11 14/14/11 15/15/11
f 14/14/11 16/16/11 15/15/11
f 16/16/12 17/17/12 15/15/12
f 15/15/13 17/17/13 18/18/13
f 18/18/14 17/17/14 2/2/14
f 2/2/15 17/17/15 4/4/15
f 17/17/16 19/19/16 4/4/16
f 4/4/17 19/19/17 6/6/17
f 19/19/18 20/20/18 6/6/18
f 6/6/19 20/20/19 7/7/19
f 21/21/20 22/22/20 23/23/20
f 22/22/21 24/24/21 23/23/21
f 24/24/22 25/25/22 23/23/22
f 23/23/23 25/25/23 12/12/23
f 25/25/24 26/26/24 12/12/24
f 12/12/25 26/26/25 14/14/25
f 14/14/26 26/26/26 16/16/26
f 26/26/26 27/27/26 16/16/26
f 16/16/27 27/27/27 17/17/27
f 27/27/28 28/28/28 17/17/28
f 17/17/29 28/28/29 19/19/29
f 28/28/30 29/29/30 19/19/30
f 19/19/31 29/29/31 20/20/31
f 25/25/32 24/24/32 26/26/32
f 24/24/33 30/30/33 26/26/33
f 26/26/34 30/30/34 27/27/34
f 30/30/34 31/31/34 27/27/34
f 31/31/35 29/29/35 27/27/35
f 27/27/36 29/29/36 28/28/36
f 10/10/37 32/32/37 12/12/37
f 12/12/38 32/32/38 23/23/38
f 23/23/39 32/32/39 21/21/39
f 32/32/40 33/33/40 21/21/40
f 21/21/41 33/33/41 34/34/41
f 35/35/42 33/33/42 36/36/42
f 36/36/42 33/33/42 37/37/42
f 33/33/43 32/32/43 37/37/43
f 37/37/44 32/32/44 38/38/44
f 32/32/45 10/10/45 38/38/45
f 10/10/46 9/9/46 38/38/46
f 38/38/46 9/9/46 39/39/46
f 9/9/47 40/40/47 39/39/47
f 38/38/42 39/39/42 37/37/42
f 37/37/42 39/39/42 36/36/42
f 39/39/48 40/40/48 36/36/48
f 36/36/49 40/40/49 35/35/49
